name grf.mot
datacolumns 19
datarows 35
range 1.615 1.6575
DataType=double
version=3
OpenSimVersion=4.4
endheader
time	R_ground_force_vx	R_ground_force_vy	R_ground_force_vz	R_ground_force_px	R_ground_force_py	R_ground_force_pz	L_ground_force_vx	L_ground_force_vy	L_ground_force_vz	L_ground_force_px	L_ground_force_py	L_ground_force_pz	R_ground_torque_x	R_ground_torque_y	R_ground_torque_z	L_ground_torque_x	L_ground_torque_y	L_ground_torque_z
1.615	0.5429027144137619	13.38335545740907	1.6187885823384591	0.20500131639616878	0.001377197222848346	0.23775855262549564	0.0	0.0	0.0	0.0	0.0	0.0	-0.000282617279481466	-0.04300672135790259	0.00011991200680688222	0.0	0.0	0.0
1.61625	-0.08962994098394997	25.156363504051193	1.0868002337819933	0.21142076858887554	0.0013517652182505721	0.243767133403525	0.0	0.0	0.0	0.0	0.0	0.0	0.002209799709440492	0.33627186750594207	-0.0009375984309467959	0.0	0.0	0.0
1.6175	1.4602133834383655	51.902559328875206	0.3410347828534852	0.21500204552798727	0.0013303147481699474	0.24451448438391796	0.0	0.0	0.0	0.0	0.0	0.0	0.004785450097386576	0.7282163330142347	-0.0020304240621969692	0.0	0.0	0.0
1.61875	3.9700128256503273	111.32222377212224	-2.6264179317963645	0.22424159701229457	0.0012690655691319818	0.24432376559960947	0.0	0.0	0.0	0.0	0.0	0.0	0.008547929909739637	1.3007642012885567	-0.0036268108991852023	0.0	0.0	0.0
1.6199999999999999	8.856318304621793	240.58550241117817	-5.835012326917348	0.23230569050475264	0.0012071552397395153	0.24112551939184887	0.0	0.0	0.0	0.0	0.0	0.0	0.01162791747572781	1.7694551719160079	-0.004933622325066566	0.0	0.0	0.0
1.62125	18.938288389226717	412.9082766113371	-11.847012602096072	0.2305851399328426	0.0012128753141386977	0.2391219195655335	0.0	0.0	0.0	0.0	0.0	0.0	0.012944226325994769	1.9697618483097443	-0.005492120503602468	0.0	0.0	0.0
1.6225	34.851708200180845	562.0170788601198	-8.417176483988532	0.23268819546636202	0.001195171978197783	0.2377292099705426	0.0	0.0	0.0	0.0	0.0	0.0	0.013975329454906312	2.1266679123611762	-0.0059296084223861	0.0	0.0	0.0
1.62375	51.66178216456981	628.668105419364	4.004620154000438	0.23357090197261654	0.001186517617265263	0.23670572966156062	0.0	0.0	0.0	0.0	0.0	0.0	0.012351433503738659	1.8795547817902851	-0.0052406037631262115	0.0	0.0	0.0
1.625	60.03806404849268	616.7125600177736	18.084017041591643	0.23423669434642047	0.001180239294048806	0.23602318193376834	0.0	0.0	0.0	0.0	0.0	0.0	0.008743693932437622	1.3305542013604612	-0.003709871838931609	0.0	0.0	0.0
1.62625	60.72552954459022	577.3661675042009	30.171001071684934	0.23540293902284531	0.001168128376185624	0.23442826264785072	0.0	0.0	0.0	0.0	0.0	0.0	0.004728587167523339	0.7195633299681751	-0.002006297625040224	0.0	0.0	0.0
1.6275	56.17230343587451	534.3221295239206	40.026977139265504	0.23675711901998978	0.0011558226779442508	0.23320642446365672	0.0	0.0	0.0	0.0	0.0	0.0	-0.002095919723627232	-0.31894240758368003	0.0008892801623007245	0.0	0.0	0.0
1.62875	50.20288085899884	493.55775881149935	44.16160367726773	0.23918056849639527	0.001139072031795727	0.23291052687644487	0.0	0.0	0.0	0.0	0.0	0.0	-0.004284126701237162	-0.6519284441492893	0.0018177169885112631	0.0	0.0	0.0
1.63	42.18565514928374	465.6706049985676	45.6358489241739	0.24028539478044567	0.001131397601648217	0.2327620089697653	0.0	0.0	0.0	0.0	0.0	0.0	-0.007363117441581453	-1.1204677248206716	0.0031241054701069346	0.0	0.0	0.0
1.63125	34.02127409590593	440.4120815135236	48.063196992693875	0.2387932584081089	0.0011398366821707734	0.23227193012629038	0.0	0.0	0.0	0.0	0.0	0.0	-0.006676374683669449	-1.0159640140487476	0.002832726604623511	0.0	0.0	0.0
1.6325	25.233008426090414	428.53319794941604	49.16100446276413	0.24145427799187805	0.0011206293776073943	0.23165486864969415	0.0	0.0	0.0	0.0	0.0	0.0	-0.005724662744172889	-0.871139146050534	0.0024289236638532644	0.0	0.0	0.0
1.63375	17.915419883498913	425.19390128392985	49.062827377529175	0.2425670068022723	0.001111832037109019	0.23112224156746378	0.0	0.0	0.0	0.0	0.0	0.0	-0.003619416335975075	-0.5507774688268092	0.0015356862719529726	0.0	0.0	0.0
1.635	10.698556670643699	436.5083096218361	50.760372691426696	0.2436841924948113	0.0011036908204521923	0.23083543913550314	0.0	0.0	0.0	0.0	0.0	0.0	-0.002903656747345683	-0.4418581796598142	0.0012319958223764545	0.0	0.0	0.0
1.63625	2.110360593820891	448.4249578192483	52.62654470806326	0.24392833259488353	0.0011010869496804463	0.23047696182382793	0.0	0.0	0.0	0.0	0.0	0.0	-0.001744920376335429	-0.2655297813158152	0.0007403542502018995	0.0	0.0	0.0
1.6375	-6.208952756723653	469.7375694928919	53.923386126055725	0.24517196833019259	0.0010924664722952136	0.23031629800697717	0.0	0.0	0.0	0.0	0.0	0.0	0.0002472113153628136	0.03761888931857168	-0.00010488957003942866	0.0	0.0	0.0
1.63875	-15.531916917839176	490.2968102686642	55.97608837794782	0.24601883814747802	0.0010877222655512	0.23061074113466962	0.0	0.0	0.0	0.0	0.0	0.0	0.0011390835323850906	0.173337766786739	-0.00048330304693179935	0.0	0.0	0.0
1.64	-25.1739505392363	525.3411386680839	59.07466829778722	0.24850910201441867	0.0010688092154540745	0.22969676530182526	0.0	0.0	0.0	0.0	0.0	0.0	0.0027395375324407757	0.41688366515792946	-0.001162361494104223	0.0	0.0	0.0
1.64125	-37.441038665511094	548.6268594156198	60.208673274214945	0.24889707238785413	0.001068571127339388	0.2305257710444519	0.0	0.0	0.0	0.0	0.0	0.0	0.003326612413965169	0.5062206154401894	-0.0014114521630069336	0.0	0.0	0.0
1.6425	-50.8690049540802	572.8519234385842	61.426369813672615	0.24971783595234012	0.0010612681748499557	0.22984098493089178	0.0	0.0	0.0	0.0	0.0	0.0	0.004365994091721154	0.6643864511660702	-0.001852452596691307	0.0	0.0	0.0
1.64375	-65.11931633831729	593.4338871285987	60.02651595705962	0.2512408092034644	0.001051767017998404	0.23002282620137027	0.0	0.0	0.0	0.0	0.0	0.0	0.005211201575969141	0.7930042159091167	-0.0022110666410637037	0.0	0.0	0.0
1.645	-79.8687925026753	613.9363392347739	59.295939491100334	0.2527501912731165	0.0010423576399887517	0.23020555148964084	0.0	0.0	0.0	0.0	0.0	0.0	0.0060162971096513074	0.9155180245024497	-0.0025526615403289395	0.0	0.0	0.0
1.64625	-93.41496503796056	627.9896340706675	56.535022283244125	0.2535230251459423	0.0010367785773323034	0.23002607833221425	0.0	0.0	0.0	0.0	0.0	0.0	0.005306430346881332	0.8074954643684832	-0.002251471364535619	0.0	0.0	0.0
1.6475	-108.37379088908959	636.9673753002955	52.28894057256946	0.2548308318131573	0.0010294330818745884	0.23047393244974904	0.0	0.0	0.0	0.0	0.0	0.0	0.004188926131286213	0.6374414871150061	-0.0017773242304572536	0.0	0.0	0.0
1.64875	-120.71532749108853	638.1381763269472	48.30859128409949	0.2570727161935062	0.0010167494806828485	0.2312087643032446	0.0	0.0	0.0	0.0	0.0	0.0	0.0012485662245647717	0.1899980773124206	-0.0005297555828629814	0.0	0.0	0.0
1.65	-131.05547233694344	639.7166044620116	43.36220700572189	0.2583062449467511	0.0010100963544591908	0.23172987471085432	0.0	0.0	0.0	0.0	0.0	0.0	-0.00040472949797712817	-0.06158890488494578	0.0001717231388166488	0.0	0.0	0.0
1.6512499999999999	-141.21798433662	637.5607522635071	35.83782360296033	0.26040548975248007	0.0009966741091150563	0.2318636068605794	0.0	0.0	0.0	0.0	0.0	0.0	-0.002395980301316592	-0.36460352808860613	0.0010165932059347858	0.0	0.0	0.0
1.6525	-148.5942236080334	633.1098192047165	31.73576349665432	0.26116683359739157	0.0009934164601751573	0.23248963362768743	0.0	0.0	0.0	0.0	0.0	0.0	-0.0013674701920391994	-0.2080920516331138	0.0005802054823996227	0.0	0.0	0.0
1.65375	-154.0546051207086	629.0645098471896	25.79133096110827	0.26226213676648297	0.0009889734695788489	0.23347763429951005	0.0	0.0	0.0	0.0	0.0	0.0	-0.000510937818652664	-0.07775094445154306	0.00021678638793984185	0.0	0.0	0.0
1.655	-156.84489925968631	631.0188321960296	21.618625668638728	0.26258256683112036	0.0009876044178990446	0.2337418334390091	0.0	0.0	0.0	0.0	0.0	0.0	-0.00218316703498806	-0.3322190933397871	0.0009262984232258068	0.0	0.0	0.0
1.65625	-157.32907546927467	628.1353176598287	18.87291012987057	0.26250284778112737	0.000990427903846139	0.23456659565412283	0.0	0.0	0.0	0.0	0.0	0.0	-0.0008984084017900148	-0.1367135083611036	0.00038118672215818757	0.0	0.0	0.0
1.6575	-154.4327855923207	632.4251637750922	15.389504827568416	0.2631608836669337	0.0009859176112240959	0.2344998751779662	0.0	0.0	0.0	0.0	0.0	0.0	-0.0016103719256122951	-0.24505513893016884	0.0006832665350821099	0.0	0.0	0.0
